<?xml version="1.0" ?><!DOCTYPE svg  PUBLIC '-//W3C//DTD SVG 1.1//EN'  'http://www.w3.org/Graphics/SVG/1.1/DTD/svg11.dtd'><svg enable-background="new 0 0 65 65" height="65px" id="Layer_1" version="1.1" viewBox="0 0 65 65" width="65px" fill="#A3A3A3" xml:space="preserve" xmlns="http://www.w3.org/2000/svg" xmlns:xlink="http://www.w3.org/1999/xlink"><path d="M28.192,37.378c0,1.922-0.869,1.922-1.24,1.922c-0.283,0-1.144,0-1.144-1.922v-6.463h-3.202v6.436  c0,4.439,3.01,4.919,4.305,4.919c2.798,0,4.469-1.859,4.469-4.974v-6.381h-3.188V37.378z"/><polygon points="33.594,30.915 33.594,33.926 36.394,33.926 36.394,42.119 39.596,42.119 39.596,33.926 42.408,33.926   42.408,30.915 "/><path d="M60.285,63.218c0.024-0.043,0.047-0.087,0.066-0.133c0.019-0.044,0.033-0.09,0.047-0.136  c0.015-0.045,0.027-0.091,0.037-0.138c0.011-0.051,0.018-0.102,0.022-0.154c0.003-0.027,0.011-0.054,0.012-0.082  c0.001-0.021-0.003-0.039-0.003-0.06c0-0.023,0.005-0.046,0.004-0.069l-1.758-44.11c0-0.012-0.004-0.022-0.005-0.034  c-0.003-0.055-0.014-0.108-0.022-0.163c-0.008-0.044-0.014-0.09-0.025-0.133c-0.014-0.05-0.033-0.098-0.052-0.146  c-0.017-0.042-0.03-0.084-0.05-0.125c-0.026-0.054-0.059-0.103-0.092-0.153c-0.018-0.027-0.034-0.057-0.054-0.083  c-0.05-0.067-0.106-0.127-0.167-0.185c-0.005-0.005-0.01-0.011-0.016-0.016c-0.205-0.191-0.466-0.323-0.759-0.375  c-0.006-0.001-0.012-0.003-0.018-0.004c-0.022-0.004-0.043-0.012-0.066-0.015l-17.337-2.017l1.176-8.821  c0.001-0.006,0-0.013,0.001-0.02c0-0.002,0.002-0.004,0.002-0.007c0.005-0.039,0-0.077,0.002-0.116  c0.002-0.059,0.007-0.119,0.002-0.177c-0.003-0.043-0.015-0.083-0.021-0.125c-0.009-0.055-0.016-0.111-0.03-0.165  c-0.012-0.042-0.031-0.08-0.046-0.12c-0.02-0.05-0.036-0.102-0.061-0.149c-0.02-0.039-0.045-0.073-0.068-0.109  c-0.027-0.045-0.054-0.091-0.086-0.133c-0.026-0.034-0.059-0.063-0.088-0.095c-0.036-0.039-0.07-0.079-0.11-0.114  c-0.032-0.029-0.07-0.051-0.105-0.077c-0.043-0.031-0.084-0.064-0.13-0.091c-0.04-0.022-0.083-0.039-0.125-0.058  C40.315,4.491,40.27,4.467,40.22,4.45c-0.047-0.016-0.098-0.023-0.147-0.035c-0.045-0.011-0.088-0.026-0.135-0.032  c-0.005,0-0.009,0-0.014,0S39.915,4.38,39.91,4.379L10.536,1.004c-0.034-0.004-0.066,0-0.1-0.001c-0.009,0-0.017-0.004-0.026-0.004  c-0.029-0.002-0.057,0.003-0.085,0.003c-0.042,0.001-0.083,0-0.123,0.004C9.468,1.062,8.859,1.628,8.803,2.384L4.532,59.961  c0,0.007,0.001,0.014,0,0.021c0,0.007-0.002,0.014-0.003,0.021c-0.002,0.044,0.005,0.085,0.007,0.128  c0.002,0.052,0.001,0.104,0.008,0.155c0.007,0.05,0.022,0.097,0.034,0.145c0.012,0.047,0.021,0.095,0.037,0.141  c0.017,0.048,0.041,0.092,0.062,0.137c0.02,0.042,0.037,0.085,0.061,0.125c0.025,0.043,0.056,0.081,0.086,0.121  c0.027,0.038,0.052,0.077,0.083,0.111c0.032,0.036,0.069,0.067,0.104,0.1c0.035,0.033,0.068,0.067,0.107,0.097  c0.037,0.028,0.077,0.051,0.116,0.075c0.043,0.027,0.084,0.056,0.13,0.079c0.04,0.02,0.083,0.032,0.125,0.049  c0.05,0.02,0.099,0.041,0.151,0.055c0.042,0.012,0.087,0.016,0.131,0.023c0.048,0.008,0.095,0.021,0.145,0.025  c0.013,0.001,0.025,0.001,0.038,0.001c0.001,0,0.003,0.001,0.004,0.001l52.943,2.434c0.023,0.001,0.045,0.002,0.067,0.002h0.001  h0.001c0.001,0,0.001,0,0.001,0l0,0c0.02,0,0.039,0,0.059-0.001c0.037-0.001,0.072-0.011,0.108-0.016  c0.054-0.006,0.107-0.011,0.159-0.022c0.045-0.01,0.087-0.025,0.131-0.039c0.048-0.016,0.097-0.03,0.144-0.051  c0.042-0.019,0.082-0.042,0.122-0.063c0.043-0.024,0.086-0.048,0.127-0.076c0.037-0.025,0.071-0.055,0.105-0.084  c0.039-0.031,0.076-0.063,0.111-0.099c0.031-0.032,0.06-0.066,0.088-0.101c0.031-0.039,0.063-0.078,0.091-0.12  C60.242,63.297,60.264,63.258,60.285,63.218z M11.681,4.156l26.369,3.03l-1.175,8.819c-0.001,0.004,0,0.009,0,0.013  c-0.001,0.004-0.002,0.008-0.003,0.012c-0.005,0.043-0.001,0.085-0.002,0.128c-0.002,0.055-0.007,0.11-0.003,0.165  c0.004,0.046,0.016,0.089,0.023,0.134c0.009,0.052,0.015,0.105,0.029,0.155c0.012,0.044,0.031,0.084,0.048,0.126  c0.019,0.048,0.034,0.098,0.058,0.144c0.021,0.039,0.047,0.075,0.07,0.112c0.027,0.044,0.052,0.09,0.084,0.131  c0.027,0.034,0.06,0.064,0.09,0.096c0.035,0.039,0.068,0.079,0.107,0.113c0.034,0.03,0.073,0.053,0.109,0.08  c0.042,0.03,0.081,0.063,0.126,0.089c0.041,0.023,0.086,0.04,0.129,0.06c0.046,0.021,0.091,0.045,0.14,0.062  c0.046,0.016,0.096,0.023,0.144,0.034c0.047,0.011,0.091,0.027,0.14,0.033c0.005,0,0.011,0,0.016,0.001  c0.003,0,0.006,0.001,0.009,0.002l17.577,2.045l1.642,41.195L7.639,58.646L11.681,4.156z"/></svg>